<svg xmlns="http://www.w3.org/2000/svg" viewBox="0 0 800 450" width="800" height="450" role="img"><defs><linearGradient id="sky" x1="0" y1="0" x2="0" y2="1"><stop offset="0" stop-color="#e6dcd4"/><stop offset="1" stop-color="#d6c2b6"/></linearGradient><filter id="soft"><feGaussianBlur stdDeviation="0.6"/></filter></defs><g filter="url(#soft)"><rect x="0" y="0" width="800" height="450" fill="url(#sky)"/><rect x="0" y="315" width="800" height="135" fill="#c6a895" opacity="0.35"/><path d="M160 450 L160 202" stroke="#b08e7c" stroke-width="3" opacity="0.7"/><path d="M160 225 q 10 -6 16 -16 M160 225 q -10 -6 -16 -16" stroke="#c6a895" stroke-width="3" fill="none" opacity="0.7"/><path d="M206 450 L206 202" stroke="#b08e7c" stroke-width="3" opacity="0.7"/><path d="M206 225 q 10 -6 16 -16 M206 225 q -10 -6 -16 -16" stroke="#c6a895" stroke-width="3" fill="none" opacity="0.7"/><path d="M252 450 L252 202" stroke="#b08e7c" stroke-width="3" opacity="0.7"/><path d="M252 225 q 10 -6 16 -16 M252 225 q -10 -6 -16 -16" stroke="#c6a895" stroke-width="3" fill="none" opacity="0.7"/><path d="M298 450 L298 202" stroke="#b08e7c" stroke-width="3" opacity="0.7"/><path d="M298 225 q 10 -6 16 -16 M298 225 q -10 -6 -16 -16" stroke="#c6a895" stroke-width="3" fill="none" opacity="0.7"/><path d="M344 450 L344 202" stroke="#b08e7c" stroke-width="3" opacity="0.7"/><path d="M344 225 q 10 -6 16 -16 M344 225 q -10 -6 -16 -16" stroke="#c6a895" stroke-width="3" fill="none" opacity="0.7"/><path d="M390 450 L390 202" stroke="#b08e7c" stroke-width="3" opacity="0.7"/><path d="M390 225 q 10 -6 16 -16 M390 225 q -10 -6 -16 -16" stroke="#c6a895" stroke-width="3" fill="none" opacity="0.7"/><path d="M436 450 L436 202" stroke="#b08e7c" stroke-width="3" opacity="0.7"/><path d="M436 225 q 10 -6 16 -16 M436 225 q -10 -6 -16 -16" stroke="#c6a895" stroke-width="3" fill="none" opacity="0.7"/><path d="M482 450 L482 202" stroke="#b08e7c" stroke-width="3" opacity="0.7"/><path d="M482 225 q 10 -6 16 -16 M482 225 q -10 -6 -16 -16" stroke="#c6a895" stroke-width="3" fill="none" opacity="0.7"/><path d="M528 450 L528 202" stroke="#b08e7c" stroke-width="3" opacity="0.7"/><path d="M528 225 q 10 -6 16 -16 M528 225 q -10 -6 -16 -16" stroke="#c6a895" stroke-width="3" fill="none" opacity="0.7"/><path d="M574 450 L574 202" stroke="#b08e7c" stroke-width="3" opacity="0.7"/><path d="M574 225 q 10 -6 16 -16 M574 225 q -10 -6 -16 -16" stroke="#c6a895" stroke-width="3" fill="none" opacity="0.7"/><path d="M620 450 L620 202" stroke="#b08e7c" stroke-width="3" opacity="0.7"/><path d="M620 225 q 10 -6 16 -16 M620 225 q -10 -6 -16 -16" stroke="#c6a895" stroke-width="3" fill="none" opacity="0.7"/><path d="M666 450 L666 202" stroke="#b08e7c" stroke-width="3" opacity="0.7"/><path d="M666 225 q 10 -6 16 -16 M666 225 q -10 -6 -16 -16" stroke="#c6a895" stroke-width="3" fill="none" opacity="0.7"/></g><rect x="0" y="0" width="800" height="450" fill="#ffffff" opacity="0.04"/></svg>