<svg xmlns="http://www.w3.org/2000/svg" viewBox="0 0 800 450" width="800" height="450" role="img"><defs><linearGradient id="sky" x1="0" y1="0" x2="0" y2="1"><stop offset="0" stop-color="#dde4e6"/><stop offset="1" stop-color="#c4d2d6"/></linearGradient><filter id="soft"><feGaussianBlur stdDeviation="0.6"/></filter></defs><g filter="url(#soft)"><rect x="0" y="0" width="800" height="450" fill="url(#sky)"/><circle cx="400" cy="207" r="70" fill="#a7bcc0" opacity="0.55"/><circle cx="400" cy="207" r="44" fill="#8aa3a8" opacity="0.8"/><rect x="398" y="87" width="3" height="44" rx="1.5" fill="#8aa3a8" opacity="0.35" transform="rotate(0 400 207)"/><rect x="398" y="87" width="3" height="44" rx="1.5" fill="#8aa3a8" opacity="0.35" transform="rotate(30 400 207)"/><rect x="398" y="87" width="3" height="44" rx="1.5" fill="#8aa3a8" opacity="0.35" transform="rotate(60 400 207)"/><rect x="398" y="87" width="3" height="44" rx="1.5" fill="#8aa3a8" opacity="0.35" transform="rotate(90 400 207)"/><rect x="398" y="87" width="3" height="44" rx="1.5" fill="#8aa3a8" opacity="0.35" transform="rotate(120 400 207)"/><rect x="398" y="87" width="3" height="44" rx="1.5" fill="#8aa3a8" opacity="0.35" transform="rotate(150 400 207)"/><rect x="398" y="87" width="3" height="44" rx="1.5" fill="#8aa3a8" opacity="0.35" transform="rotate(180 400 207)"/><rect x="398" y="87" width="3" height="44" rx="1.5" fill="#8aa3a8" opacity="0.35" transform="rotate(210 400 207)"/><rect x="398" y="87" width="3" height="44" rx="1.5" fill="#8aa3a8" opacity="0.35" transform="rotate(240 400 207)"/><rect x="398" y="87" width="3" height="44" rx="1.5" fill="#8aa3a8" opacity="0.35" transform="rotate(270 400 207)"/><rect x="398" y="87" width="3" height="44" rx="1.5" fill="#8aa3a8" opacity="0.35" transform="rotate(300 400 207)"/><rect x="398" y="87" width="3" height="44" rx="1.5" fill="#8aa3a8" opacity="0.35" transform="rotate(330 400 207)"/></g><rect x="0" y="0" width="800" height="450" fill="#ffffff" opacity="0.04"/></svg>