<svg xmlns="http://www.w3.org/2000/svg" viewBox="0 0 800 450" width="800" height="450" role="img"><defs><linearGradient id="sky" x1="0" y1="0" x2="0" y2="1"><stop offset="0" stop-color="#dde2d6"/><stop offset="1" stop-color="#c7d2c0"/></linearGradient><filter id="soft"><feGaussianBlur stdDeviation="0.6"/></filter></defs><g filter="url(#soft)"><rect x="0" y="0" width="800" height="450" fill="url(#sky)"/><path d="M310 225 Q 400 195 490 225" stroke="#a7b598" stroke-width="4" fill="none" opacity="0.7"/><ellipse cx="340" cy="219" rx="20" ry="8" fill="#8a9c7c" opacity="0.8" transform="rotate(20 340 219)"/><ellipse cx="370" cy="207" rx="20" ry="8" fill="#8a9c7c" opacity="0.8" transform="rotate(30 370 207)"/><ellipse cx="400" cy="219" rx="20" ry="8" fill="#8a9c7c" opacity="0.8" transform="rotate(15 400 219)"/><ellipse cx="430" cy="207" rx="20" ry="8" fill="#8a9c7c" opacity="0.8" transform="rotate(30 430 207)"/><ellipse cx="460" cy="219" rx="20" ry="8" fill="#8a9c7c" opacity="0.8" transform="rotate(20 460 219)"/><ellipse cx="385" cy="235" rx="20" ry="8" fill="#8a9c7c" opacity="0.8" transform="rotate(-20 385 235)"/><ellipse cx="415" cy="235" rx="20" ry="8" fill="#8a9c7c" opacity="0.8" transform="rotate(-15 415 235)"/></g><rect x="0" y="0" width="800" height="450" fill="#ffffff" opacity="0.04"/></svg>